<svg version="1" xmlns="http://www.w3.org/2000/svg" width="346.667" height="346.667" viewBox="0 0 260.000000 260.000000"><path d="M30 12.5c0 .8-.6 1.5-1.3 1.5-.8 0-1.2 1.9-1.2 6.2 0 5.1.4 6.6 2.3 8.5 1.3 1.3 2.8 2.3 3.4 2.3.6 0 .9.2.6.5-1 1.1 8.3 9.5 10.7 9.7 2 .2 2.5.8 2.5 3 0 1.8-.5 2.8-1.5 2.8-.8 0-1.5.8-1.5 1.7 0 .9-.3 1.4-.6 1-.7-.7-5.4 4.1-5.4 5.5 0 .5-.4.6-1 .3-.5-.3-1.1 0-1.1.7-.1.7-.2 1.8-.3 2.4 0 .6-2.5 3.4-5.3 6.2L25 70v36.8l6.8 6.8 6.8 6.9V148c-.1 25.1.1 27.7 1.7 29.3 1 1 1.5 2.2 1.2 2.7-.6 1 31 33 32.6 33 .6 0 .8.4.4.9-.3.6.4 1.5 1.5 2.1 1.1.6 1.8 1.5 1.4 2.1-.3.6.5.8 2 .5 1.7-.3 2.7.1 3 1.2.5 1.6 4.4 1.7 47 1.7l46.3-.1 21.7-21.8c12-12 21.5-22.3 21.3-23-.3-.7.2-1.7 1.1-2.3 1.5-.9 1.7-3.8 1.7-26.2-.1-20.1-.3-25.4-1.4-26.1-1.8-1.1-.6-4.1 1.3-3.4 1.5.6 5.6-2.8 5.6-4.6 0-.6.5-1 1-1 1.4 0 5-3.7 4.2-4.4-.3-.3.2-.6 1.1-.6 1.5 0 1.7-2.1 1.7-20.8 0-20.8 0-20.8-2.2-20.9-1.3-.1-2.8-.9-3.4-1.8-.6-.8-1.7-1.5-2.4-1.5s-1-.7-.6-1.6c.3-.8.2-1.3-.3-1-.5.3-1.9-.8-3.2-2.4-1.3-1.6-3-3-3.7-3-.6 0-1.1-.3-1-.8.4-1-5.9-7.2-7.2-7.2-.5 0-1-.3-1-.8 0-1.1 4.3-4.7 5.7-4.7 1.5 0 11.3-9.2 11.3-10.6 0-.5.3-.8.8-.6.4.2 1.6-.6 2.7-1.8 1.5-1.5 2-3.5 2.1-7.8 0-3.1-.3-5.7-.7-5.7-.4 0-1.1-.9-1.4-2-.5-1.7-1.5-2-5.7-2-4.8 0-5.2.2-12 7.1-3.8 3.8-7.5 6.8-8.1 6.6-.6-.2-4.1 2.9-7.9 6.7l-6.9 7.1-23.2.1c-22.7.1-27.3.6-26.1 2.6.4.6.1.9-.7.6-.8-.3-1.4-1-1.4-1.6 0-.7-.3-1.2-.7-1.2h-1.9c-.6 0-.9.9-.6 1.9.3 1.2-.3 2.7-1.3 3.6-1 .9-1.7 2.5-1.5 3.6.3 1.3-.2 1.9-1.3 1.9-2.9 0-4.5-1.7-3.9-3.9.3-1.2.2-1.9-.3-1.6-1 .6-3.2-2-2.4-2.8.3-.3-.6-.4-2-.3-1.7.2-3-.3-3.5-1.3-.8-1.4-3.8-1.6-24.8-1.5-22.8 0-23.9 0-25.8-2-1.1-1.1-1.9-2.4-1.7-2.8.1-.5-.1-.7-.5-.5-.5.1-2.7-1.7-5.1-4.1-2.3-2.3-4.9-4.2-5.8-4.2-.9 0-3.5-2-5.8-4.5-2.4-2.5-4.9-4.5-5.7-4.5-1.1 0-1.1-.2.1-1 1.3-.8 1.3-1-.1-1-.9 0-1.9-.7-2.3-1.5-.4-1.1-2.1-1.5-6.1-1.5-4.2 0-5.5.3-5.5 1.5zm80.5 44.6c.4 1 .4 2.3.1 2.8-.3.4.5.8 1.7.7 3-.2 4.8 1.5 3.5 3.1-.7.9-.7 1.3 0 1.3 1.1 0 .9 3-.4 5.3-.4.6-.4.9.1.5.9-.9 3.4 2.1 3.5 4.1 0 .7 1.8 3 4 5.1 2.2 2.1 4 4.3 4 5.1 0 .7.3.9.6.6.4-.3 1.6-.1 2.8.5 1.1.6 1.8.8 1.4.4-.3-.4 1.6-2.9 4.3-5.6 2.7-2.7 4.9-5.8 4.9-6.9 0-1.3.6-2.1 1.6-2.1s1.4-.6 1.1-1.4c-.3-.7 0-1.9.6-2.5.7-.7.7-1.1.1-1.1-1.7 0-1-4.4.9-6.2 1-.9 1.8-1.9 1.8-2.2-.4-3.1.1-3.3 10.3-3.3 11-.1 12.9.7 9.4 3.9-1 1-1.8 1.5-1.8 1.1 0-.4-.7.2-1.5 1.4-.9 1.3-2.3 2-3.5 1.8-1.3-.2-2 .2-2 1.1 0 .8-.7 1.4-1.5 1.4s-1.5.3-1.5.7c0 1.3-6.8 8.3-7.9 8.3-.6 0-1.1.4-1.1.9 0 1.2-5.9 7.1-7.1 7.1-.5 0-.9.4-.9 1 0 .5-1.6 2.5-3.5 4.4-4.1 4.2-5.8 3.9-10.5-1.9-1.9-2.3-3.8-4-4.2-3.8-.5.2-.8-.4-.8-1.3 0-1-.3-1.5-.6-1.2-.7.7-5.4-3.9-5.4-5.3 0-.6-.4-.7-1-.4-.5.3-1 0-1-.7s-1.4-2.2-3-3.3c-1.6-1.1-3-2.6-3-3.3 0-.7-.4-1.1-.9-.7-.5.3-1.2-.3-1.6-1.3-.3-1.2-1.4-1.9-2.7-1.8-2.3.1-8.6-5.3-8-7 .2-.6 3.7-1.1 9.2-1.2 8 0 9 .1 9.5 1.9zm-44.6 4.8c1.3 1.1 2.8 1.8 3.6 1.5.7-.3 1.5.1 1.8 1 .6 1.6-1.6 2.8-3.7 2-1.1-.4-1.4.1-1 2 .2 1.5 0 2.6-.6 2.6s-.8.5-.4 1.1c1 1.7 1.2 10.9.2 10.9-.5 0-.6.5-.2 1.1 1 1.7 1.2 10.9.2 10.9-.5 0-.6.5-.2 1.1 1 1.6 1.2 10.9.2 10.9-.4 0-.3.8.3 1.8 1.1 1.7 2.9 1.8 22.8 1.8l21.6-.1.2-3.5c0-1.9.2-3.8.2-4.2.1-.4 1.2-.7 2.5-.6 1.8.2 2.5.9 2.9 3.1.2 1.5 0 3-.5 3.3-.5.3-.6.9-.3 1.4.3.4-.2 1-1 1.4-.8.3-1.2 1.2-.9 1.9.3.8-.1 1.7-.9 2-.8.3-1.7 1.8-2 3.4l-.6 2.9-22.8-.2c-12.5 0-23.1-.2-23.5-.3-.3 0-.5-.9-.4-1.8.2-1.1-4.1-6.1-10.9-12.9L41.2 95.2l.2-6.8.1-6.9 10.8-10.8C58.2 64.8 63.2 60 63.4 60c.2 0 1.3.9 2.5 1.9zm133.1-.3c0 .7.7 1.4 1.5 1.8.8.3 1.5 1.2 1.5 2.1 0 .8.4 1.4.8 1.2.5-.1 4.3 3.2 8.4 7.4l7.5 7.6-.1 6.9c-.1 5.2-.6 7.5-2.1 9.1-1 1.2-2.2 2-2.7 1.7-.4-.3-.8 0-.8.6s-3 4-6.7 7.7c-3.8 3.6-6.7 6.9-6.5 7.4.2.8-1.2 1.3-3 1-.5 0-.8.4-.8 1 0 .7-.9 1.9-2 2.9-1.7 1.5-4.4 1.6-22.7 1.5-11.4-.1-21.2-.3-21.7-.4-.4 0-.5-.8-.2-1.7.4-.9 0-2.2-.8-2.8-.8-.6-1.6-2-1.8-3.1-.2-1.1-1.2-2.8-2.3-3.7-1.2-1.1-1.5-1.7-.7-1.8.9 0 1-.5.3-1.8-1.2-2.3-.2-3.7 2.9-3.9 2.4-.1 2.6.2 2.5 4v4.2l20.5.2c11.3 0 21.2-.1 22.1-.3 1.4-.4 1.6-3.1 1.5-22.1l-.1-21.6-2.5-.4c-1.3-.2-2.9-.9-3.5-1.5-.7-.8-.6-.9.3-.4.6.4 1.2.2 1.2-.4 0-.6 1-.8 2.8-.4 1.5.4 2.4.3 2-.1-.4-.5-.4-1.3.2-1.9 1.2-1.5 5-1.5 5 0zM93.7 85c-.3 1.1-.1 2 .4 2 .6 0 .5.8-.1 2-.7 1.4-.7 2 0 2s.6.6-.1 1.9c-1 1.5-1.9 1.7-4.6 1.1-1.8-.4-3.3-.4-3.3.1 0 .4-.7.6-1.5.3-1.1-.5-1.5-2.1-1.5-6V83h5.6c5.1 0 5.6.2 5.1 2zm83.3 3.6c0 4.6-.3 5.5-1.5 5-.8-.3-1.5-.1-1.5.3 0 .5-.8.8-1.7.6-7-1.4-7.6-1.6-6.5-2.7.7-.7.8-1.7.2-2.9-.7-1.1-.7-2 0-2.4.5-.3.7-1.2.3-2-.4-1.2.6-1.5 5.1-1.5h5.6v5.6zm-44.8 36.3c1.3.2.4 10.6-1 10.5-.6-.1-1.8-.2-2.6-.3-1.1-.1-1.4-1.5-1.4-5.6.1-4.9.3-5.4 2.2-5 1.2.2 2.4.4 2.8.4zM84 138.5c3.6 0 7.1-.4 7.8-.8.6-.5 1.2-.5 1.2 0 0 1 13.6 1 14.6 0 1.1-1.1 6.3 5.2 5.9 7.3-.2 1.1.1 1.9.8 1.7.6-.1 1.1.3 1.2 1 0 .7.8 2.2 1.8 3.3 1 1.2 1.7 2.6 1.6 3.3-.3 2.6.2 3.7 1.6 3.7 1.1 0 1.4.7 1.1 2.5-.3 1.4-.2 2.4.2 2.1.9-.5 2.7 1.5 2.8 3.1.1.7.2 1.7.3 2.2.1 1 10.1 1.4 10.2.3.3-2.9.9-4.6 2-5.3.7-.4 1.4-1.8 1.6-3.1.2-1.3.8-2.5 1.3-2.6.6-.2.8-.8.4-1.3-.3-.5 0-.9.6-.9s.8-.5.5-1c-.3-.6.1-1.3 1-1.6.9-.4 1.4-1.3 1.1-2-.3-.7-.1-1.6.5-1.9.5-.4.7-1.1.3-1.6-.3-.5 0-.8.6-.7.7.2 1.4-.8 1.6-2.1.7-4.2 3.9-6 10.2-5.7 3.1.2 6.3-.1 7-.7.6-.5 1.2-.6 1.2-.1 0 .7 12.4.9 20.5.3.6 0 2 .1 3.2.2 2.1.3 2.1.6 2.1 18.9 0 10.2.2 19 .4 19.6.2.6-1.8 3.3-4.4 5.9-2.7 2.6-4.8 5.2-4.8 5.8 0 .6-.2.8-.5.5-.3-.3-4.3 3.2-8.8 7.7l-8.2 8.3-35.2-.1c-19.4 0-35.3-.4-35.3-.7 0-1.3-3.7-5-5-5-.7 0-1.1-.3-.8-.6.8-.7-4-5.4-5.4-5.4-.6 0-.8-.3-.5-.7.4-.3-.6-1.6-2.2-2.7-1.5-1.2-3-2.6-3.2-3.1-.2-.6-1.4-1-2.6-1-1.3.1-2.3-.5-2.3-1.1 0-.7-.7-1.5-1.6-1.8-1.3-.5-1.5-1.9-1.2-7.1.1-3.6-.1-6.5-.6-6.5s-.3-.6.3-1.4c.8-1 .9-1.6.1-2.1-.6-.3-.7-1.1-.4-1.7 1-1.6 1-8.8.1-8.8-.5 0-.5-.5-.1-1.1.8-1.3 1.1-8.9.4-8.9-.3 0-.5-1.3-.5-2.9 0-1.6.3-2.7.8-2.4.4.2.7-.1.7-.7 0-.8.9-1 2.4-.6 1.4.3 2.8.1 3.2-.5.3-.6.9-.7 1.3-.2.3.4 3.5.8 7.1.8zM55.3 233.7c-.3.7-.2 1.6.1 2.2.3.5 0 1.2-.6 1.4-.7.3-.8.6-.3.6.6.1.9 2.5.8 5.6l-.2 5.5h66.6v-5.1c0-3.3-.5-5.3-1.4-5.6-.7-.3-1.3-1.6-1.3-2.9 0-1.3-.3-2.5-.7-2.5-.5-.1-14.7-.2-31.7-.3-23.6-.1-30.9.1-31.3 1.1zM138.5 234c-.2.8-.3 3.2-.1 5.2.2 2.1 0 3.8-.5 3.8-.6 0-.6.7-.1 1.7s.7 2.4.5 3c-.4 1 6.4 1.3 31.7 1.3 21.1 0 31.9-.3 31.5-1-.3-.5.1-1 .9-1 .9 0 1.8-1.2 2.2-2.7.3-1.6.7-3.3.9-4 .2-.6-.5-1.3-1.6-1.6-1.3-.3-1.9-1.4-1.9-3.1 0-1.4-.3-2.7-.7-2.7-.5-.1-14.6-.2-31.6-.3-26.8-.1-30.8 0-31.2 1.4z"/></svg>